<mxfile host="app.diagrams.net" modified="2024-02-17T22:32:57.887Z" agent="Mozilla/5.0 (Windows NT 10.0; Win64; x64) AppleWebKit/537.36 (KHTML, like Gecko) Chrome/121.0.0.0 Safari/537.36" etag="GInd0GTVpNTA8gGpbm0F" version="23.1.4" type="google">
  <diagram name="Page-1" id="G4O3pw8mz-HCcEDm6bKv">
    <mxGraphModel grid="1" page="1" gridSize="10" guides="1" tooltips="1" connect="1" arrows="1" fold="1" pageScale="1" pageWidth="850" pageHeight="1100" background="#CCE5FF" math="0" shadow="0">
      <root>
        <mxCell id="0" />
        <mxCell id="1" parent="0" />
        <mxCell id="jNIEVBM6Wmnlz1BXS3UX-2" value="&lt;h1&gt;Activity Diagram: Buyer&lt;/h1&gt;" style="rounded=1;whiteSpace=wrap;html=1;fontFamily=Times New Roman;" vertex="1" parent="1">
          <mxGeometry x="160" y="50" width="530" height="30" as="geometry" />
        </mxCell>
        <mxCell id="HwOnpyn5BcN7FP6Mbuu5-87" style="edgeStyle=orthogonalEdgeStyle;rounded=0;orthogonalLoop=1;jettySize=auto;html=1;exitX=0.5;exitY=1;exitDx=0;exitDy=0;entryX=0.5;entryY=0;entryDx=0;entryDy=0;" edge="1" parent="1" source="jNIEVBM6Wmnlz1BXS3UX-7" target="HwOnpyn5BcN7FP6Mbuu5-19">
          <mxGeometry relative="1" as="geometry" />
        </mxCell>
        <mxCell id="jNIEVBM6Wmnlz1BXS3UX-7" value="Access Cart" style="rounded=1;whiteSpace=wrap;html=1;" vertex="1" parent="1">
          <mxGeometry x="600" y="240" width="120" height="30" as="geometry" />
        </mxCell>
        <mxCell id="HwOnpyn5BcN7FP6Mbuu5-60" style="edgeStyle=orthogonalEdgeStyle;rounded=0;orthogonalLoop=1;jettySize=auto;html=1;exitX=0;exitY=0.5;exitDx=0;exitDy=0;entryX=1;entryY=0.5;entryDx=0;entryDy=0;" edge="1" parent="1" source="HwOnpyn5BcN7FP6Mbuu5-15" target="HwOnpyn5BcN7FP6Mbuu5-13">
          <mxGeometry relative="1" as="geometry" />
        </mxCell>
        <mxCell id="HwOnpyn5BcN7FP6Mbuu5-15" value="Update Database" style="rounded=1;whiteSpace=wrap;html=1;" vertex="1" parent="1">
          <mxGeometry x="180" y="400" width="70" height="30" as="geometry" />
        </mxCell>
        <mxCell id="HwOnpyn5BcN7FP6Mbuu5-90" style="edgeStyle=orthogonalEdgeStyle;rounded=0;orthogonalLoop=1;jettySize=auto;html=1;exitX=0.5;exitY=1;exitDx=0;exitDy=0;entryX=0.5;entryY=0;entryDx=0;entryDy=0;" edge="1" parent="1" source="HwOnpyn5BcN7FP6Mbuu5-19" target="HwOnpyn5BcN7FP6Mbuu5-88">
          <mxGeometry relative="1" as="geometry" />
        </mxCell>
        <mxCell id="HwOnpyn5BcN7FP6Mbuu5-91" style="edgeStyle=orthogonalEdgeStyle;rounded=0;orthogonalLoop=1;jettySize=auto;html=1;exitX=0.5;exitY=1;exitDx=0;exitDy=0;entryX=0.5;entryY=0;entryDx=0;entryDy=0;" edge="1" parent="1" source="HwOnpyn5BcN7FP6Mbuu5-19" target="HwOnpyn5BcN7FP6Mbuu5-89">
          <mxGeometry relative="1" as="geometry" />
        </mxCell>
        <mxCell id="HwOnpyn5BcN7FP6Mbuu5-19" value="Display Items in Cart" style="rounded=1;whiteSpace=wrap;html=1;" vertex="1" parent="1">
          <mxGeometry x="600" y="290" width="120" height="30" as="geometry" />
        </mxCell>
        <mxCell id="HwOnpyn5BcN7FP6Mbuu5-54" style="edgeStyle=orthogonalEdgeStyle;rounded=0;orthogonalLoop=1;jettySize=auto;html=1;exitX=0.5;exitY=1;exitDx=0;exitDy=0;" edge="1" parent="1" source="jNIEVBM6Wmnlz1BXS3UX-3">
          <mxGeometry relative="1" as="geometry">
            <mxPoint x="180" y="240" as="targetPoint" />
          </mxGeometry>
        </mxCell>
        <mxCell id="HwOnpyn5BcN7FP6Mbuu5-55" style="edgeStyle=orthogonalEdgeStyle;rounded=0;orthogonalLoop=1;jettySize=auto;html=1;exitX=0.5;exitY=1;exitDx=0;exitDy=0;entryX=0.5;entryY=0;entryDx=0;entryDy=0;" edge="1" parent="1" source="jNIEVBM6Wmnlz1BXS3UX-3" target="jNIEVBM6Wmnlz1BXS3UX-7">
          <mxGeometry relative="1" as="geometry" />
        </mxCell>
        <mxCell id="HwOnpyn5BcN7FP6Mbuu5-56" style="edgeStyle=orthogonalEdgeStyle;rounded=0;orthogonalLoop=1;jettySize=auto;html=1;exitX=0.5;exitY=1;exitDx=0;exitDy=0;entryX=0.5;entryY=0;entryDx=0;entryDy=0;" edge="1" parent="1" source="jNIEVBM6Wmnlz1BXS3UX-3" target="jNIEVBM6Wmnlz1BXS3UX-4">
          <mxGeometry relative="1" as="geometry" />
        </mxCell>
        <mxCell id="HwOnpyn5BcN7FP6Mbuu5-71" style="edgeStyle=orthogonalEdgeStyle;rounded=0;orthogonalLoop=1;jettySize=auto;html=1;exitX=0.5;exitY=0;exitDx=0;exitDy=0;" edge="1" parent="1" source="jNIEVBM6Wmnlz1BXS3UX-3">
          <mxGeometry relative="1" as="geometry">
            <mxPoint x="420" y="160" as="targetPoint" />
          </mxGeometry>
        </mxCell>
        <mxCell id="jNIEVBM6Wmnlz1BXS3UX-3" value="Home Page, Select Input" style="rounded=1;whiteSpace=wrap;html=1;" vertex="1" parent="1">
          <mxGeometry x="360" y="160" width="120" height="30" as="geometry" />
        </mxCell>
        <mxCell id="HwOnpyn5BcN7FP6Mbuu5-59" style="edgeStyle=orthogonalEdgeStyle;rounded=0;orthogonalLoop=1;jettySize=auto;html=1;exitX=0.5;exitY=1;exitDx=0;exitDy=0;entryX=0.5;entryY=0;entryDx=0;entryDy=0;" edge="1" parent="1" source="HwOnpyn5BcN7FP6Mbuu5-30" target="HwOnpyn5BcN7FP6Mbuu5-15">
          <mxGeometry relative="1" as="geometry" />
        </mxCell>
        <mxCell id="HwOnpyn5BcN7FP6Mbuu5-30" value="Change Information" style="rounded=1;whiteSpace=wrap;html=1;" vertex="1" parent="1">
          <mxGeometry x="180" y="320" width="70" height="30" as="geometry" />
        </mxCell>
        <mxCell id="HwOnpyn5BcN7FP6Mbuu5-57" style="edgeStyle=orthogonalEdgeStyle;rounded=0;orthogonalLoop=1;jettySize=auto;html=1;exitX=0.5;exitY=1;exitDx=0;exitDy=0;entryX=0.5;entryY=0;entryDx=0;entryDy=0;" edge="1" parent="1" source="jNIEVBM6Wmnlz1BXS3UX-6" target="HwOnpyn5BcN7FP6Mbuu5-13">
          <mxGeometry relative="1" as="geometry">
            <Array as="points">
              <mxPoint x="180" y="290" />
              <mxPoint x="105" y="290" />
            </Array>
          </mxGeometry>
        </mxCell>
        <mxCell id="HwOnpyn5BcN7FP6Mbuu5-70" style="edgeStyle=orthogonalEdgeStyle;rounded=0;orthogonalLoop=1;jettySize=auto;html=1;exitX=0.5;exitY=1;exitDx=0;exitDy=0;entryX=0.5;entryY=0;entryDx=0;entryDy=0;" edge="1" parent="1" source="jNIEVBM6Wmnlz1BXS3UX-6" target="HwOnpyn5BcN7FP6Mbuu5-30">
          <mxGeometry relative="1" as="geometry">
            <Array as="points">
              <mxPoint x="180" y="290" />
              <mxPoint x="215" y="290" />
            </Array>
          </mxGeometry>
        </mxCell>
        <mxCell id="jNIEVBM6Wmnlz1BXS3UX-6" value="Account Information" style="rounded=1;whiteSpace=wrap;html=1;" vertex="1" parent="1">
          <mxGeometry x="120" y="240" width="120" height="30" as="geometry" />
        </mxCell>
        <mxCell id="HwOnpyn5BcN7FP6Mbuu5-51" style="edgeStyle=orthogonalEdgeStyle;rounded=0;orthogonalLoop=1;jettySize=auto;html=1;exitX=0;exitY=0.5;exitDx=0;exitDy=0;entryX=0;entryY=0.5;entryDx=0;entryDy=0;" edge="1" parent="1" source="HwOnpyn5BcN7FP6Mbuu5-13" target="jNIEVBM6Wmnlz1BXS3UX-3">
          <mxGeometry relative="1" as="geometry" />
        </mxCell>
        <mxCell id="HwOnpyn5BcN7FP6Mbuu5-13" value="Back to Home Page" style="rounded=1;whiteSpace=wrap;html=1;" vertex="1" parent="1">
          <mxGeometry x="70" y="400" width="70" height="30" as="geometry" />
        </mxCell>
        <mxCell id="HwOnpyn5BcN7FP6Mbuu5-84" style="edgeStyle=orthogonalEdgeStyle;rounded=0;orthogonalLoop=1;jettySize=auto;html=1;exitX=0.5;exitY=1;exitDx=0;exitDy=0;entryX=0.5;entryY=0;entryDx=0;entryDy=0;" edge="1" parent="1" source="HwOnpyn5BcN7FP6Mbuu5-17" target="HwOnpyn5BcN7FP6Mbuu5-18">
          <mxGeometry relative="1" as="geometry" />
        </mxCell>
        <mxCell id="HwOnpyn5BcN7FP6Mbuu5-17" value="Search by Name" style="rounded=1;whiteSpace=wrap;html=1;" vertex="1" parent="1">
          <mxGeometry x="310" y="320" width="70" height="30" as="geometry" />
        </mxCell>
        <mxCell id="HwOnpyn5BcN7FP6Mbuu5-103" style="edgeStyle=orthogonalEdgeStyle;rounded=0;orthogonalLoop=1;jettySize=auto;html=1;exitX=1;exitY=0.75;exitDx=0;exitDy=0;entryX=1;entryY=0.75;entryDx=0;entryDy=0;" edge="1" parent="1" source="HwOnpyn5BcN7FP6Mbuu5-37" target="jNIEVBM6Wmnlz1BXS3UX-3">
          <mxGeometry relative="1" as="geometry">
            <Array as="points">
              <mxPoint x="550" y="583" />
              <mxPoint x="550" y="183" />
            </Array>
          </mxGeometry>
        </mxCell>
        <mxCell id="HwOnpyn5BcN7FP6Mbuu5-37" value="Back to Home Page" style="rounded=1;whiteSpace=wrap;html=1;" vertex="1" parent="1">
          <mxGeometry x="440" y="560" width="70" height="30" as="geometry" />
        </mxCell>
        <mxCell id="HwOnpyn5BcN7FP6Mbuu5-61" style="edgeStyle=orthogonalEdgeStyle;rounded=0;orthogonalLoop=1;jettySize=auto;html=1;exitX=0.5;exitY=1;exitDx=0;exitDy=0;entryX=0.5;entryY=0;entryDx=0;entryDy=0;" edge="1" parent="1" source="jNIEVBM6Wmnlz1BXS3UX-4" target="HwOnpyn5BcN7FP6Mbuu5-17">
          <mxGeometry relative="1" as="geometry" />
        </mxCell>
        <mxCell id="HwOnpyn5BcN7FP6Mbuu5-79" style="edgeStyle=orthogonalEdgeStyle;rounded=0;orthogonalLoop=1;jettySize=auto;html=1;exitX=1;exitY=0.5;exitDx=0;exitDy=0;entryX=1;entryY=0.5;entryDx=0;entryDy=0;" edge="1" parent="1" source="jNIEVBM6Wmnlz1BXS3UX-4" target="HwOnpyn5BcN7FP6Mbuu5-37">
          <mxGeometry relative="1" as="geometry">
            <Array as="points">
              <mxPoint x="540" y="255" />
              <mxPoint x="540" y="575" />
            </Array>
          </mxGeometry>
        </mxCell>
        <mxCell id="HwOnpyn5BcN7FP6Mbuu5-82" style="edgeStyle=orthogonalEdgeStyle;rounded=0;orthogonalLoop=1;jettySize=auto;html=1;exitX=0.5;exitY=1;exitDx=0;exitDy=0;entryX=0.5;entryY=0;entryDx=0;entryDy=0;" edge="1" parent="1" source="jNIEVBM6Wmnlz1BXS3UX-4" target="HwOnpyn5BcN7FP6Mbuu5-36">
          <mxGeometry relative="1" as="geometry" />
        </mxCell>
        <mxCell id="HwOnpyn5BcN7FP6Mbuu5-83" style="edgeStyle=orthogonalEdgeStyle;rounded=0;orthogonalLoop=1;jettySize=auto;html=1;exitX=0.5;exitY=1;exitDx=0;exitDy=0;entryX=0.5;entryY=0;entryDx=0;entryDy=0;" edge="1" parent="1" source="jNIEVBM6Wmnlz1BXS3UX-4" target="HwOnpyn5BcN7FP6Mbuu5-41">
          <mxGeometry relative="1" as="geometry" />
        </mxCell>
        <mxCell id="jNIEVBM6Wmnlz1BXS3UX-4" value="Search for Books" style="rounded=1;whiteSpace=wrap;html=1;" vertex="1" parent="1">
          <mxGeometry x="360" y="240" width="120" height="30" as="geometry" />
        </mxCell>
        <mxCell id="HwOnpyn5BcN7FP6Mbuu5-85" style="edgeStyle=orthogonalEdgeStyle;rounded=0;orthogonalLoop=1;jettySize=auto;html=1;exitX=0.5;exitY=1;exitDx=0;exitDy=0;" edge="1" parent="1" source="HwOnpyn5BcN7FP6Mbuu5-36">
          <mxGeometry relative="1" as="geometry">
            <mxPoint x="420" y="440" as="targetPoint" />
          </mxGeometry>
        </mxCell>
        <mxCell id="HwOnpyn5BcN7FP6Mbuu5-36" value="Search by Keyword" style="rounded=1;whiteSpace=wrap;html=1;" vertex="1" parent="1">
          <mxGeometry x="385" y="320" width="70" height="30" as="geometry" />
        </mxCell>
        <mxCell id="HwOnpyn5BcN7FP6Mbuu5-86" style="edgeStyle=orthogonalEdgeStyle;rounded=0;orthogonalLoop=1;jettySize=auto;html=1;exitX=0.5;exitY=1;exitDx=0;exitDy=0;entryX=0.5;entryY=0;entryDx=0;entryDy=0;" edge="1" parent="1" source="HwOnpyn5BcN7FP6Mbuu5-41" target="HwOnpyn5BcN7FP6Mbuu5-18">
          <mxGeometry relative="1" as="geometry" />
        </mxCell>
        <mxCell id="HwOnpyn5BcN7FP6Mbuu5-41" value="Search by ISBN" style="rounded=1;whiteSpace=wrap;html=1;" vertex="1" parent="1">
          <mxGeometry x="460" y="320" width="70" height="30" as="geometry" />
        </mxCell>
        <mxCell id="HwOnpyn5BcN7FP6Mbuu5-73" style="edgeStyle=orthogonalEdgeStyle;rounded=0;orthogonalLoop=1;jettySize=auto;html=1;exitX=0;exitY=0.5;exitDx=0;exitDy=0;entryX=0;entryY=0.75;entryDx=0;entryDy=0;" edge="1" parent="1" source="HwOnpyn5BcN7FP6Mbuu5-47" target="HwOnpyn5BcN7FP6Mbuu5-18">
          <mxGeometry relative="1" as="geometry">
            <Array as="points">
              <mxPoint x="320" y="525" />
              <mxPoint x="320" y="463" />
            </Array>
          </mxGeometry>
        </mxCell>
        <mxCell id="HwOnpyn5BcN7FP6Mbuu5-47" value="Add Comment" style="rounded=1;whiteSpace=wrap;html=1;" vertex="1" parent="1">
          <mxGeometry x="330" y="510" width="70" height="30" as="geometry" />
        </mxCell>
        <mxCell id="HwOnpyn5BcN7FP6Mbuu5-76" style="edgeStyle=orthogonalEdgeStyle;rounded=0;orthogonalLoop=1;jettySize=auto;html=1;exitX=0.5;exitY=1;exitDx=0;exitDy=0;entryX=0.5;entryY=0;entryDx=0;entryDy=0;" edge="1" parent="1" source="HwOnpyn5BcN7FP6Mbuu5-48" target="HwOnpyn5BcN7FP6Mbuu5-37">
          <mxGeometry relative="1" as="geometry" />
        </mxCell>
        <mxCell id="HwOnpyn5BcN7FP6Mbuu5-105" style="edgeStyle=orthogonalEdgeStyle;rounded=0;orthogonalLoop=1;jettySize=auto;html=1;exitX=1;exitY=0.5;exitDx=0;exitDy=0;entryX=1;entryY=0.75;entryDx=0;entryDy=0;" edge="1" parent="1" source="HwOnpyn5BcN7FP6Mbuu5-48" target="HwOnpyn5BcN7FP6Mbuu5-18">
          <mxGeometry relative="1" as="geometry">
            <Array as="points">
              <mxPoint x="520" y="525" />
              <mxPoint x="520" y="463" />
            </Array>
          </mxGeometry>
        </mxCell>
        <mxCell id="HwOnpyn5BcN7FP6Mbuu5-48" value="Add Book to Cart" style="rounded=1;whiteSpace=wrap;html=1;" vertex="1" parent="1">
          <mxGeometry x="440" y="510" width="70" height="30" as="geometry" />
        </mxCell>
        <mxCell id="HwOnpyn5BcN7FP6Mbuu5-68" style="edgeStyle=orthogonalEdgeStyle;rounded=0;orthogonalLoop=1;jettySize=auto;html=1;exitX=0.5;exitY=1;exitDx=0;exitDy=0;entryX=0.5;entryY=0;entryDx=0;entryDy=0;" edge="1" parent="1" source="HwOnpyn5BcN7FP6Mbuu5-18" target="HwOnpyn5BcN7FP6Mbuu5-47">
          <mxGeometry relative="1" as="geometry" />
        </mxCell>
        <mxCell id="HwOnpyn5BcN7FP6Mbuu5-69" style="edgeStyle=orthogonalEdgeStyle;rounded=0;orthogonalLoop=1;jettySize=auto;html=1;exitX=0.5;exitY=1;exitDx=0;exitDy=0;entryX=0.5;entryY=0;entryDx=0;entryDy=0;" edge="1" parent="1" source="HwOnpyn5BcN7FP6Mbuu5-18" target="HwOnpyn5BcN7FP6Mbuu5-48">
          <mxGeometry relative="1" as="geometry" />
        </mxCell>
        <mxCell id="HwOnpyn5BcN7FP6Mbuu5-81" style="edgeStyle=orthogonalEdgeStyle;rounded=0;orthogonalLoop=1;jettySize=auto;html=1;exitX=1;exitY=0.25;exitDx=0;exitDy=0;entryX=1;entryY=0.25;entryDx=0;entryDy=0;" edge="1" parent="1" source="HwOnpyn5BcN7FP6Mbuu5-18" target="HwOnpyn5BcN7FP6Mbuu5-37">
          <mxGeometry relative="1" as="geometry" />
        </mxCell>
        <mxCell id="HwOnpyn5BcN7FP6Mbuu5-18" value="Return List of Relevant Books" style="rounded=1;whiteSpace=wrap;html=1;" vertex="1" parent="1">
          <mxGeometry x="360" y="440" width="120" height="30" as="geometry" />
        </mxCell>
        <mxCell id="HwOnpyn5BcN7FP6Mbuu5-72" value="" style="endArrow=classic;html=1;rounded=0;entryX=0.5;entryY=0;entryDx=0;entryDy=0;" edge="1" parent="1" target="jNIEVBM6Wmnlz1BXS3UX-3">
          <mxGeometry width="50" height="50" relative="1" as="geometry">
            <mxPoint x="420" y="120" as="sourcePoint" />
            <mxPoint x="490" y="190" as="targetPoint" />
          </mxGeometry>
        </mxCell>
        <mxCell id="HwOnpyn5BcN7FP6Mbuu5-92" style="edgeStyle=orthogonalEdgeStyle;rounded=0;orthogonalLoop=1;jettySize=auto;html=1;exitX=0;exitY=0.5;exitDx=0;exitDy=0;entryX=0;entryY=0.5;entryDx=0;entryDy=0;" edge="1" parent="1" source="HwOnpyn5BcN7FP6Mbuu5-88" target="HwOnpyn5BcN7FP6Mbuu5-19">
          <mxGeometry relative="1" as="geometry" />
        </mxCell>
        <mxCell id="HwOnpyn5BcN7FP6Mbuu5-88" value="Remove Items" style="rounded=1;whiteSpace=wrap;html=1;" vertex="1" parent="1">
          <mxGeometry x="580" y="360" width="70" height="30" as="geometry" />
        </mxCell>
        <mxCell id="HwOnpyn5BcN7FP6Mbuu5-94" style="edgeStyle=orthogonalEdgeStyle;rounded=0;orthogonalLoop=1;jettySize=auto;html=1;exitX=0.5;exitY=1;exitDx=0;exitDy=0;entryX=0.5;entryY=0;entryDx=0;entryDy=0;" edge="1" parent="1" source="HwOnpyn5BcN7FP6Mbuu5-89" target="HwOnpyn5BcN7FP6Mbuu5-93">
          <mxGeometry relative="1" as="geometry" />
        </mxCell>
        <mxCell id="HwOnpyn5BcN7FP6Mbuu5-89" value="Checkout" style="rounded=1;whiteSpace=wrap;html=1;" vertex="1" parent="1">
          <mxGeometry x="670" y="360" width="70" height="30" as="geometry" />
        </mxCell>
        <mxCell id="HwOnpyn5BcN7FP6Mbuu5-100" style="edgeStyle=orthogonalEdgeStyle;rounded=0;orthogonalLoop=1;jettySize=auto;html=1;exitX=0.5;exitY=1;exitDx=0;exitDy=0;entryX=0.5;entryY=0;entryDx=0;entryDy=0;" edge="1" parent="1" source="HwOnpyn5BcN7FP6Mbuu5-93" target="HwOnpyn5BcN7FP6Mbuu5-95">
          <mxGeometry relative="1" as="geometry" />
        </mxCell>
        <mxCell id="HwOnpyn5BcN7FP6Mbuu5-93" value="Enter/Verify Payment Information" style="rounded=1;whiteSpace=wrap;html=1;" vertex="1" parent="1">
          <mxGeometry x="645" y="430" width="120" height="30" as="geometry" />
        </mxCell>
        <mxCell id="HwOnpyn5BcN7FP6Mbuu5-99" style="edgeStyle=orthogonalEdgeStyle;rounded=0;orthogonalLoop=1;jettySize=auto;html=1;exitX=0.5;exitY=1;exitDx=0;exitDy=0;entryX=0.5;entryY=0;entryDx=0;entryDy=0;" edge="1" parent="1" source="HwOnpyn5BcN7FP6Mbuu5-95" target="HwOnpyn5BcN7FP6Mbuu5-98">
          <mxGeometry relative="1" as="geometry" />
        </mxCell>
        <mxCell id="HwOnpyn5BcN7FP6Mbuu5-95" value="Update Inventory" style="rounded=1;whiteSpace=wrap;html=1;" vertex="1" parent="1">
          <mxGeometry x="645" y="500" width="120" height="30" as="geometry" />
        </mxCell>
        <mxCell id="HwOnpyn5BcN7FP6Mbuu5-96" value="Automatic" style="shape=callout;whiteSpace=wrap;html=1;perimeter=calloutPerimeter;direction=west;position2=0.29;size=20;position=0.29;fillColor=#CCFFE6;" vertex="1" parent="1">
          <mxGeometry x="110" y="420" width="70" height="50" as="geometry" />
        </mxCell>
        <mxCell id="HwOnpyn5BcN7FP6Mbuu5-97" value="Automatic" style="shape=callout;whiteSpace=wrap;html=1;perimeter=calloutPerimeter;direction=north;position2=0.29;size=20;position=0.43;fillColor=#CCFFE6;base=10;" vertex="1" parent="1">
          <mxGeometry x="610" y="537.5" width="90" height="25" as="geometry" />
        </mxCell>
        <mxCell id="HwOnpyn5BcN7FP6Mbuu5-102" style="edgeStyle=orthogonalEdgeStyle;rounded=0;orthogonalLoop=1;jettySize=auto;html=1;exitX=1;exitY=0.5;exitDx=0;exitDy=0;entryX=1;entryY=0.25;entryDx=0;entryDy=0;" edge="1" parent="1" source="HwOnpyn5BcN7FP6Mbuu5-98" target="jNIEVBM6Wmnlz1BXS3UX-3">
          <mxGeometry relative="1" as="geometry">
            <Array as="points">
              <mxPoint x="780" y="585" />
              <mxPoint x="780" y="168" />
            </Array>
          </mxGeometry>
        </mxCell>
        <mxCell id="HwOnpyn5BcN7FP6Mbuu5-98" value="Back to Home Page" style="rounded=1;whiteSpace=wrap;html=1;" vertex="1" parent="1">
          <mxGeometry x="670" y="570" width="70" height="30" as="geometry" />
        </mxCell>
        <mxCell id="HwOnpyn5BcN7FP6Mbuu5-101" value="Automatic" style="shape=callout;whiteSpace=wrap;html=1;perimeter=calloutPerimeter;direction=north;position2=0.29;size=20;position=0.43;fillColor=#CCFFE6;base=10;" vertex="1" parent="1">
          <mxGeometry x="220" y="485" width="90" height="25" as="geometry" />
        </mxCell>
        <mxCell id="HwOnpyn5BcN7FP6Mbuu5-104" value="Automatic" style="shape=callout;whiteSpace=wrap;html=1;perimeter=calloutPerimeter;direction=north;position2=0.29;size=20;position=0.43;fillColor=#CCFFE6;base=10;" vertex="1" parent="1">
          <mxGeometry x="610" y="470" width="90" height="25" as="geometry" />
        </mxCell>
      </root>
    </mxGraphModel>
  </diagram>
</mxfile>
